
<!--
    This was taken from a free svg online with several rotation and orientation problems
    so please forgive the messy transforms and viewBox wranging it back into usage
-->
<svg viewBox="0 0 3000 1500" preserveAspectRatio="xMidYMid meet">
 <title>New York State (silhouette)</title>
 <g transform="scale(1, -1) translate(100, -1500) rotate(-9.2)">
    <path
        d="m0,271.605011l56.054699,53.075012l105.883305,103.02298l65.397995,68.684021l21.800995,28.096985l6.230011,74.926025l-15.574005,137.362976l-24.914001,56.195984l-15.569992,49.953003l0,28.093994l49.827988,34.343018l109,46.825012l127.683014,24.976013l124.567017,9.367004l34.257996,-6.242004l24.914001,-21.855042l31.143982,0l115.22699,40.585999l52.940979,18.734009l31.141052,-18.734009l21.800964,9.364014l-3.114014,18.72998l34.254028,49.950073l21.801025,43.709961l18.686951,3.119995l31.138977,-9.359985l21.800049,15.609985l21.800049,37.459961l-9.340088,140.48999l-21.799927,43.700073l-12.460083,12.48999l-28.024963,18.72998l43.595032,24.97998l21.799927,0l0,31.219971l-21.799927,12.490112l-6.219971,6.23999l-6.230103,9.359985l-21.809937,-6.23999l-9.335022,0l-6.231018,37.459961l43.606079,59.319946l15.569946,53.070068l40.47998,46.829956l31.150024,43.710083l15.569946,49.949951l52.940063,56.189941l74.73999,62.440063l87.199951,31.219971l115.220093,37.459961l68.519897,9.370117l40.480103,18.72998l52.939941,24.97998l77.859985,15.609985l15.570068,-46.829956l-9.340088,-3.120117l-15.569946,0l-6.22998,-18.73999l0,-34.329956l9.339966,-56.199951l15.569946,-43.710083l0,-12.48999l6.230103,3.130005l9.349976,12.47998l6.219971,6.25l6.22998,-6.25l0,-18.72998l12.459961,-43.699951l12.450073,-15.609985l0,-12.48999l-6.219971,-9.369995l-18.690063,-12.490112l-3.109985,0l0,-15.609985l3.109985,-24.969971l12.459961,-18.72998l6.230103,-15.609985l-3.119995,-21.849976l-3.110107,-18.730103l-9.339966,-15.619995l12.450073,-96.779907l18.689941,-49.950073l0,-34.339966l3.109985,-15.609985l-18.679932,-12.48999l21.799927,-43.700073l15.570068,-43.709961l12.449951,-21.849976l0,-6.25l-15.569946,-15.609985l-9.340088,-12.48999l0,-24.969971l9.340088,-18.730103l15.569946,-6.23999l6.22998,0l9.340088,12.47998l3.119995,15.610107l6.22998,0l12.449951,-3.119995l24.920044,-15.610107l18.679932,-15.609985l3.119995,0l74.73999,-299.703979l127.690063,-555.703003l31.139893,-24.976013l-65.399902,-49.949997l31.139893,-34.338989l-12.459961,-37.460999l0,-37.465004l15.580078,-28.0979l-9.350098,-3.125l-9.349854,-28.097702l0,-56.191399l-34.25,15.6094l-6.230103,21.855402l-21.799927,6.242199l-9.340088,0l-267.819946,56.195313l-18.690063,28.097702l-56.059937,18.72998l-34.25,24.973007l-3.119995,37.464996l-9.339966,24.977005l-28.02002,15.604996l-18.690063,31.222992l-3.119995,40.585999l-40.47998,34.33902l-31.140015,24.97699l-31.150024,21.85199l-15.569946,12.488007l-1423.202631,-231.024002l-28.027299,87.414017l0,0"
        fill="#14D0E1"
    />
    <path
        d="m2111.449951,53.070301l6.22998,28.097698l18.679932,18.734299l18.690186,9.363701l28.029785,15.612999l28.030029,21.850998l24.910156,24.973007l18.679932,28.10199l18.689941,15.609009l37.370117,0l34.26001,28.097992l40.47998,21.851013l65.399902,0l34.26001,9.363983l40.47998,21.855011l68.52002,49.953003l56.050049,46.828003l21.800049,-9.367004l-49.830078,-68.679993l-65.389893,-31.222015l15.569824,-15.609985l68.51001,28.097992l49.830078,43.707001l68.51001,15.609009l-65.399902,-49.949005l-80.970215,-65.557999l-105.879883,-71.809006l-40.48999,-31.214996l-115.219971,-59.320107l-59.170166,-37.460999l-12.459961,-9.3671l-15.569824,0l9.339844,21.851501l18.689941,24.976597l-37.379883,0l-24.909912,-24.976597l-6.22998,-12.484402l-21.800049,-24.9765l-18.680176,-6.242209l-46.719971,6.242209l-9.339844,21.855402l-9.340088,0l-6.22998,15.605499l0,0"
        fill="#7ceaf4"
    />
 </g>
</svg>